<svg width="274" height="259" viewBox="0 0 274 259" fill="none" xmlns="http://www.w3.org/2000/svg">
<circle cx="137" cy="138" r="92" stroke="#C4C4C4" stroke-width="16"/>
<circle cx="137" cy="141" r="8.5" fill="#C4C4C4" stroke="#C4C4C4" stroke-width="13"/>
<path d="M134.33 147.782C131.939 146.401 131.119 143.343 132.5 140.952L170 76C171.381 73.6085 174.439 72.7892 176.83 74.1699V74.1699C179.222 75.5506 180.041 78.6085 178.66 81L141.16 145.952C139.78 148.343 136.722 149.163 134.33 147.782V147.782Z" fill="#C4C4C4"/>
<path d="M184 208C188.783 205.239 194.899 206.877 197.66 211.66L212.66 237.641C215.422 242.424 213.783 248.54 209 251.301V251.301C204.217 254.063 198.101 252.424 195.34 247.641L180.34 221.66C177.578 216.877 179.217 210.761 184 208V208Z" fill="#C4C4C4"/>
<path d="M112 27C112 21.4772 116.477 17 122 17L152 17C157.523 17 162 21.4772 162 27V27C162 32.5229 157.523 37 152 37H122C116.477 37 112 32.5229 112 27V27Z" fill="#C4C4C4"/>
<path d="M65.9999 253.301C61.2169 250.54 59.5782 244.424 62.3396 239.641L77.3396 213.66C80.101 208.877 86.2169 207.239 90.9999 210V210C95.7828 212.761 97.4215 218.877 94.6601 223.66L79.6601 249.641C76.8987 254.424 70.7828 256.063 65.9999 253.301V253.301Z" fill="#C4C4C4"/>
<path d="M84.5 110.33C85.8807 107.939 88.9387 107.119 91.3301 108.5L134.631 133.5C137.023 134.881 137.842 137.939 136.462 140.33V140.33C135.081 142.722 132.023 143.541 129.631 142.16L86.3301 117.16C83.9387 115.78 83.1193 112.722 84.5 110.33V110.33Z" fill="#C4C4C4"/>
<path d="M25.7115 82.0648C11.5114 65.1418 13.7188 39.9116 30.6418 25.7115V25.7115C47.5648 11.5114 72.795 13.7188 86.9951 30.6418L93.4229 38.3022L32.1394 89.7252L25.7115 82.0648Z" fill="#C4C4C4"/>
<path d="M186.428 31.6418C200.628 14.7188 225.858 12.5114 242.781 26.7115V26.7115C259.704 40.9116 261.912 66.1418 247.711 83.0648L241.284 90.7252L180 39.3022L186.428 31.6418Z" fill="#C4C4C4"/>
</svg>
